# AST/ASF file generated using VICON BodyLanguage
# -----------------------------------------------
:version 1.10
:name VICON
:units
  mass 1.0
  length 0.45
  angle deg
:documentation
   .ast/.asf automatically generated from VICON data using
   VICON BodyBuilder and BodyLanguage model FoxedUp or BRILLIANT.MOD
:root
   order TX TY TZ RX RY RZ
   axis XYZ
   position 0 0 0  
   orientation 0 0 0 
:bonedata
  begin
     id 1 
     name lhipjoint
     direction 0.630082 -0.636569 0.44472 
     length 2.82754 
     axis 0 0 0  XYZ
  end
  begin
     id 2 
     name lfemur
     direction 0.34202 -0.939693 0  
     length 7.26371  
     axis 0 0 20  XYZ
    dof rx ry rz
    limits (-160.0 20.0)
           (-70.0 70.0)
           (-60.0 70.0)
  end
  begin
     id 3 
     name ltibia
     direction 0.34202 -0.939693 0   
     length 7.88616   
     axis 0 0 20   XYZ
    dof rx
    limits (-10.0 170.0)
  end
  begin
     id 4 
     name lfoot
     direction 0.0603448 -0.165796 0.984312   
     length 1.77861   
     axis -90 7.62852e-016 20   XYZ
    dof rx rz
    limits (-45.0 90.0)
           (-70.0 20.0)
  end
  begin
     id 5 
     name ltoes
     direction 1.53577e-011 -4.21876e-011 1   
     length 0.902235   
     axis -90 7.62852e-016 20   XYZ
    dof rx
    limits (-90.0 20.0)
  end
  begin
     id 6 
     name rhipjoint
     direction -0.656778 -0.61817 0.431866   
     length 2.9117  
     axis 0 0 0  XYZ 
  end
  begin
     id 7 
     name rfemur
     direction -0.34202 -0.939693 0   
     length 6.81603   
     axis 0 0 -20   XYZ
    dof rx ry rz
    limits (-160.0 20.0)
           (-70.0 70.0)
           (-70.0 60.0)
  end
  begin
     id 8 
     name rtibia
     direction -0.34202 -0.939693 0   
     length 8.05997   
     axis 0 0 -20   XYZ
    dof rx
    limits (-10.0 170.0)
 end
 begin
     id 9 
     name rfoot
     direction -0.0862404 -0.236944 0.967688   
     length 1.84899  
     axis -90 -7.62852e-016 -20   XYZ
    dof rx rz
    limits (-45.0 90.0)
           (-20.0 70.0)
  end
  begin
     id 10 
     name rtoes
     direction -1.53561e-011 -4.21798e-011 1   
     length 0.931579   
     axis -90 -7.62852e-016 -20   XYZ
    dof rx
    limits (-90.0 20.0)
  end
  begin
     id 11 
     name lowerback
     direction -0.0110203 0.991769 -0.127564   
     length 2.05686   
     axis 0 0 0   XYZ
    dof rx ry rz
    limits (-20.0 45.0)
           (-30.0 30.0)
           (-30.0 30.0)
  end
  begin
     id 12 
     name upperback
     direction 0.0109719 0.99993 -0.00432479   
     length 2.06234   
     axis 0 0 0   XYZ
    dof rx ry rz
    limits (-20.0 45.0)
           (-30.0 30.0)
           (-30.0 30.0)
  end
  begin
     id 13 
     name thorax
     direction 0.0173308 0.998351 0.0547306   
     length 2.09856   
     axis 0 0 0   XYZ
    dof rx ry rz
    limits (-20.0 45.0)
           (-30.0 30.0)
           (-30.0 30.0)
  end
  begin
     id 14 
     name lowerneck
     direction -0.0311736 0.989033 0.144366   
     length 1.98151   
     axis 0 0 0   XYZ
    dof rx ry rz
    limits (-20.0 45.0)
           (-30.0 30.0)
           (-30.0 30.0)
  end
  begin
     id 15 
     name upperneck
     direction 0.0421057 0.975772 -0.214698   
     length 2.01457   
     axis 0 0 0   XYZ
    dof rx ry rz
    limits (-20.0 45.0)
           (-30.0 30.0)
           (-30.0 30.0)
  end
  begin
     id 16
     name head
     direction 0.0136911 0.995958 -0.0887718  
     length 2.03562  
     axis 0 0 0   XYZ
    dof rx ry rz
    limits (-20.0 45.0)
           (-30.0 30.0)
           (-30.0 30.0)
  end
  begin
     id 17 
     name lclavicle
     direction 0.915335 0.396201 0.0720134  
     length 4.16217  
     axis 0 0 0   XYZ
    dof ry rz
    limits (-20.0 10.0)
           (0.0 20.0)
  end
  begin
     id 18 
     name lhumerus
     direction 1 -4.48965e-011 6.383e-018   
     length 4.93042   
     axis -180 -30 -90   XYZ
    dof rx ry rz
    limits (-60.0 90.0)
           (-90.0 90.0)
           (-90.0 90.0)
  end
  begin
     id 19
     name lradius
     direction 1 -4.48972e-011 8.8689e-027   
     length 3.68177   
     axis -180 -30 -90   XYZ
    dof rx
    limits (-10.0 170.0)
  end
  begin
     id 20
     name lwrist
     direction 1 -4.48953e-011 1.17971e-026   
     length 1.84089   
     axis -7.69454e-015 90 90   XYZ
    dof ry
    limits (-180.0 0.0)
 end
  begin
     id 21 
     name lhand
     direction 1 -4.49027e-011 2.35802e-026   
     length 0.721479   
     axis -1.50533e-014 90 90   XYZ
    dof rx rz
    limits (-90.0 90.0)
           (-45.0 45.0)
  end
  begin
     id 22 
     name lfingers
     direction 1 -4.48915e-011 4.72027e-026   
     length 0.581675   
     axis -3.01059e-014 90 90   XYZ
    dof rx
    limits (0.0 90.0)
  end
  begin
     id 23
     name lthumb
     direction 0.707107 -6.34948e-011 0.707107   
     length 0.835172   
     axis -90 45 -5.12164e-014   XYZ
    dof rx rz
    limits (-45.0 45.0)
           (-45.0 45.0)
  end
  begin
     id 24 
     name rclavicle
     direction -0.882781 0.469197 0.0234974   
     length 3.95647  
     axis 0 0 0   XYZ 
    dof ry rz
    limits (-10.0 20.0)
           (-20.0 0.0)
  end
  begin
     id 25 
     name rhumerus
     direction -1 -4.48965e-011 -1.54906e-018  
     length 5.07905   
     axis -180 30 90   XYZ
    dof rx ry rz
    limits (-90.0 60.0)
           (-90.0 90.0)
           (-90.0 90.0)
  end
  begin
     id 26 
     name rradius
     direction -1 -4.48972e-011 5.47489e-027   
     length 3.54394   
     axis -180 30 90   XYZ
    dof rx
    limits (-10.0 170.0)
  end
  begin
     id 27 
     name rwrist
     direction -1 -4.48955e-011 1.17969e-026   
     length 1.77197   
     axis -7.69454e-015 -90 -90   XYZ
    dof ry
    limits (-180.0 0.0)
  end
  begin
     id 28
     name rhand
     direction -1 -4.48982e-011 2.35888e-026   
     length 0.681156   
     axis -1.50533e-014 -90 -90   XYZ
    dof rx rz
    limits (-90.0 90.0)
           (-45.0 45.0)
  end
  begin
     id 29
     name rfingers
     direction -1 -4.48955e-011 4.71877e-026   
     length 0.549165   
     axis -3.01059e-014 -90 -90   XYZ
    dof rx
    limits (0.0 90.0)
  end
  begin
     id 30
     name rthumb
     direction -0.707107 -6.3491e-011 0.707107   
     length 0.788495   
     axis -90 -45 5.12164e-014   XYZ
    dof rx rz
    limits (-45.0 45.0)
           (-45.0 45.0)
  end
:hierarchy
  begin
    root lhipjoint rhipjoint lowerback
    lhipjoint lfemur
    lfemur ltibia
    ltibia lfoot
    lfoot ltoes
    rhipjoint rfemur
    rfemur rtibia
    rtibia rfoot
    rfoot rtoes
    lowerback upperback
    upperback thorax
    thorax lowerneck lclavicle rclavicle
    lowerneck upperneck
    upperneck head
    lclavicle lhumerus
    lhumerus lradius
    lradius lwrist
    lwrist lhand lthumb
    lhand lfingers
    rclavicle rhumerus
    rhumerus rradius
    rradius rwrist
    rwrist rhand rthumb
    rhand rfingers
  end

#!OML:ASF H:\Bending\Project 1\Capture day 1\Session 1\Subject.ASF
:FULLY-SPECIFIED
:DEGREES
305
root -8.6129 18.064 -16.3969 235.654 88.8886 227.028
lowerback 4.46552 0.355569 0.224682
upperback -2.84079 0.642971 2.32522
thorax -5.47796 0.372289 2.22908
lowerneck -26.4168 -4.28533 -5.52257
upperneck 29.0918 -4.75562 3.47101
head 14.7259 -2.03206 1.42952
rclavicle -7.50412e-015 -1.27222e-014
rhumerus -35.3879 20.7942 -83.9902
rradius 53.2464
rwrist 7.84133
rhand -25.5819 -19.4566
rfingers 7.12502
rthumb 0.949565 -49.4342
lclavicle -7.50412e-015 -1.27222e-014
lhumerus -46.8511 -30.9965 100.198
lradius 73.0148
lwrist 33.8692
lhand -39.1014 9.04817
lfingers 7.12502
lthumb -12.1014 38.6782
rfemur 3.2848 -1.684 14.9982
rtibia 1.43125e-014
rfoot -10.6061 -19.0121
rtoes 6.62324
lfemur -9.5775 -13.2297 -11.8666
ltibia 21.5721
lfoot -21.9513 10.3705
ltoes -15.2211
306
root -8.59769 18.0607 -16.4 224.651 88.6286 216.089
lowerback 4.48499 0.33969 0.312761
upperback -2.84422 0.625844 2.28513
thorax -5.49044 0.359586 2.13929
lowerneck -26.3703 -4.31841 -5.50974
upperneck 29.0307 -4.77495 3.36859
head 14.6862 -2.05528 1.38075
rclavicle 2.48481e-015 -3.97569e-015
rhumerus -37.3632 19.5304 -83.9258
rradius 51.0976
rwrist 8.85722
rhand -24.7834 -18.4935
rfingers 7.12502
rthumb 1.72078 -48.4663
lclavicle 2.48481e-015 -3.97569e-015
lhumerus -48.733 -29.1613 100.858
lradius 71.5671
lwrist 33.3879
lhand -39.7852 8.76613
lfingers 7.12502
lthumb -12.7607 38.3562
rfemur 3.50153 -2.02774 15.0152
rtibia 1.27222e-014
rfoot -10.7158 -18.9831
rtoes 6.75216
lfemur -9.57736 -13.4965 -11.8585
ltibia 21.657
lfoot -22.0362 10.3498
ltoes -15.5239
307
root -8.58454 18.0584 -16.4016 218.241 88.3294 209.716
lowerback 4.48446 0.322534 0.397001
upperback -2.8585 0.608346 2.26667
thorax -5.50332 0.34758 2.07432
lowerneck -26.2842 -4.32888 -5.48302
upperneck 28.9277 -4.76429 3.25221
head 14.6168 -2.06713 1.33027
rclavicle -2.43511e-015 1.74931e-014
rhumerus -39.1387 18.1392 -83.6673
rradius 49.0178
rwrist 9.64289
rhand -24.2427 -17.6306
rfingers 7.12502
rthumb 2.243 -47.5985
lclavicle -2.43511e-015 1.74931e-014
lhumerus -50.1627 -27.1345 101.164
lradius 69.8966
lwrist 33.132
lhand -40.3228 8.57419
lfingers 7.12502
lthumb -13.2789 38.1312
rfemur 3.67982 -2.36127 15.0685
rtibia 2.38542e-014
rfoot -10.8201 -18.9549
rtoes 6.77025
lfemur -9.63223 -13.698 -11.8045
ltibia 21.7652
lfoot -22.0761 10.2618
ltoes -15.7253
308
root -8.57359 18.0571 -16.4016 214.33 88.0307 205.813
lowerback 4.45807 0.304048 0.462789
upperback -2.88048 0.588801 2.26542
thorax -5.50993 0.335796 2.03794
lowerneck -26.1632 -4.31906 -5.46574
upperneck 28.7898 -4.72548 3.14694
head 14.5241 -2.06708 1.29204
rclavicle -2.68359e-015 -1.59028e-014
rhumerus -40.8309 16.9357 -83.317
rradius 47.1679
rwrist 10.0034
rhand -23.8655 -17.0702
rfingers 7.12502
rthumb 2.60722 -47.034
lclavicle -2.68359e-015 -1.59028e-014
lhumerus -51.1569 -24.9627 101.146
lradius 67.9604
lwrist 32.9314
lhand -40.6037 8.48461
lfingers 7.12502
lthumb -13.5497 38.0237
rfemur 3.81585 -2.67469 15.1387
rtibia -1.11319e-014
rfoot -10.9171 -18.9275
rtoes 6.74771
lfemur -9.72746 -13.8366 -11.7246
ltibia 21.8709
lfoot -22.0665 10.1214
ltoes -15.8166
309
root -8.56484 18.0563 -16.4005 211.555 87.7553 203.027
lowerback 4.41005 0.285191 0.50881
upperback -2.90464 0.567372 2.26902
thorax -5.50671 0.323948 2.01792
lowerneck -26.0277 -4.29775 -5.47692
upperneck 28.6378 -4.66976 3.07421
head 14.4237 -2.05833 1.27563
rclavicle 2.43511e-015 1.43125e-014
rhumerus -42.5064 16.0411 -82.9591
rradius 45.6439
rwrist 9.97364
rhand -23.5156 -16.8712
rfingers 7.12502
rthumb 2.94521 -46.8306
lclavicle 2.43511e-015 1.43125e-014
lhumerus -51.7522 -22.709 100.842
lradius 65.7418
lwrist 32.6358
lhand -40.5963 8.50131
lfingers 7.12502
lthumb -13.5425 38.0409
rfemur 3.91777 -2.96225 15.2009
rtibia 6.36111e-015
rfoot -11.0145 -18.9015
rtoes 6.79455
lfemur -9.83779 -13.9353 -11.6447
ltibia 21.9517
lfoot -22.0248 9.95126
ltoes -15.7451
310
root -8.55812 18.0553 -16.3992 209.234 87.5135 200.687
lowerback 4.35195 0.267846 0.544181
upperback -2.92499 0.546234 2.26364
thorax -5.49375 0.312318 1.99449
lowerneck -25.9021 -4.27581 -5.5189
upperneck 28.4925 -4.61295 3.03957
head 14.331 -2.04658 1.28018
rclavicle 1.14301e-015 3.18055e-015
rhumerus -44.1381 15.3351 -82.5906
rradius 44.4138
rwrist 9.83889
rhand -23.0797 -16.87
rfingers 7.12502
rthumb 3.36615 -46.8231
lclavicle 1.14301e-015 3.18055e-015
lhumerus -52.0057 -20.4468 100.302
lradius 63.2621
lwrist 32.1793
lhand -40.3521 8.6099
lfingers 7.12502
lthumb -13.3072 38.165
rfemur 4.00168 -3.22118 15.2349
rtibia 6.36111e-015
rfoot -11.1285 -18.8755
rtoes 7.03096
lfemur -9.93537 -14.0293 -11.5864
ltibia 21.995
lfoot -21.982 9.77511
ltoes -15.4323
311
root -8.55322 18.0536 -16.3987 207.123 87.3069 198.567
lowerback 4.29688 0.253596 0.579662
upperback -2.93702 0.527754 2.24103
thorax -5.47366 0.301401 1.95276
lowerneck -25.8032 -4.26024 -5.57269
upperneck 28.365 -4.56733 3.02754
head 14.2536 -2.03706 1.29348
rclavicle 1.2424e-015 -1.74931e-014
rhumerus -45.6095 14.544 -82.1119
rradius 43.3133
rwrist 10.0253
rhand -22.5 -16.7507
rfingers 7.12502
rthumb 3.92594 -46.6943
lclavicle 1.2424e-015 -1.74931e-014
lhumerus -51.9862 -18.244 99.5839
lradius 60.5735
lwrist 31.5925
lhand -39.9733 8.77901
lfingers 7.12502
lthumb -12.942 38.3576
rfemur 4.08386 -3.45019 15.2322
rtibia -1.11319e-014
rfoot -11.2752 -18.8461
rtoes 7.53118
lfemur -9.99933 -14.1506 -11.5597
ltibia 22.0005
lfoot -21.9676 9.61235
ltoes -14.8285
